<svg xmlns="http://www.w3.org/2000/svg" width="458" height="214" fill="none"><path fill="#FBFAF8" d="M125.596.833c-15.131.54-29.187 3.534-41.79 8.91-2.791 1.191-8.235 3.936-10.688 5.402-6.471 3.86-11.502 7.783-16.484 12.87-8.798 8.987-14.881 19.79-17.91 31.858-.55 2.156-.55 2.156-1.277 3.07-1.714 2.144-3.216 4.588-4.105 6.668l-.575 1.379-1.114.075c-2.066.163-4.23.877-6.621 2.205-5.282 2.933-9.562 7.507-12.529 13.385-2.252 4.474-3.48 9.023-3.817 14.174l-.138 2.08-.663 1.73a40.44 40.44 0 0 0-2.366 20.703l.188 1.329-.626 1.253c-1.852 3.685-3.404 8.309-4.255 12.62-.7 3.559-.826 4.9-.826 9.149 0 3.647.025 4.01.35 6.015.3 1.792.526 2.933.776 3.948.038.1.138.501.226.877 2.127 8.222 7.547 16.443 14.919 22.621 6.057 5.076 11.865 8.435 21.777 12.62.35.138 1.665.752 2.941 1.354 1.277.601 2.441 1.14 2.591 1.178.2.063.376.388.726 1.303 1.915 5.013 6.158 8.635 11.778 10.039 3.642.915 4.68 1.015 10.5.94 2.616-.025 4.982-.076 5.257-.101 2.791-.263 3.58-.351 4.005-.401.275-.037.7-.087.939-.112.738-.076 2.378-.351 4.943-.815 1.84-.326 4.431-.94 6.797-1.579l1.677-.464 1.076 1.065c2.34 2.294 4.518 3.61 7.585 4.55 1.451.451 1.89.501 4.58.501 2.241-.013 2.541-.038 3.693-.338a28.567 28.567 0 0 0 2.102-.665c4.105-1.541 7.923-4.925 10.201-9.048l.713-1.278 1.127-.401c3.128-1.128 4.305-1.63 7.134-3.071 2.302-1.165 4.117-2.218 5.882-3.421 6.996-4.75 12.566-11.204 15.307-17.746.588-1.429 1.502-4.123 1.602-4.8.188-1.165.3-1.303 1.176-1.554 2.453-.702 2.754-.815 5.194-1.98 6.621-3.171 12.153-8.986 15.157-15.929.851-1.98 1.252-3.246 1.79-5.627.275-1.215.388-1.917.576-3.571.1-.815.087-3.547-.025-4.888-.126-1.667-.151-1.516.5-2.444 2.253-3.233 3.242-7.62 2.528-11.204-1.301-6.517-7.246-11.705-17.397-15.177-.55-.188-1.126-.363-1.276-.388a3.847 3.847 0 0 1-.626-.188c-.325-.125-2.215-.689-2.691-.802-.651-.15-1.727-.476-1.727-.526 0-.038.501-.589 1.101-1.229 2.879-3.045 4.193-6.291 4.093-10.088-.063-2.23-.188-3.02-.763-4.825-1.377-4.336-4.394-9.136-7.773-12.357l-1.126-1.065-.075-2.256c-.138-3.998-.826-7.169-2.266-10.465-1.076-2.456-2.353-4.298-4.318-6.253-5.719-5.69-14.693-6.98-22.728-3.259-.889.401-1.202.476-2.266.552-.676.05-2.34.2-3.679.338-2.278.238-2.454.238-2.566.038-1.089-1.83-3.555-4.55-5.62-6.229-5.745-4.624-13.091-7.532-21.54-8.51-2.102-.25-8.198-.2-10.45.076-3.605.438-7.26 1.228-10.464 2.256-1.551.5-1.702.539-2.39.426-1.19-.2-5.307-.038-6.546.25-3.604.852-6.971 2.732-9.675 5.39l-1.101 1.09.25-.627c1.94-4.938 5.457-10.99 9.062-15.64 2.653-3.41 6.896-7.808 10.163-10.54 9.024-7.532 19.662-13.11 32.266-16.881 18.773-5.615 40.075-6.38 60.977-2.18 12.616 2.53 24.493 6.604 36.17 12.406 12.066 5.99 22.954 13.385 31.916 21.681 10.588 9.8 21.715 23.21 39.788 47.937 2.002 2.719 5.857 7.995 8.573 11.717 16.621 22.734 27.422 36.344 38.499 48.563 23.029 25.391 45.557 42.084 70.176 51.985 7.259 2.92 13.317 4.787 19.625 6.04 18.986 3.772 38.098 1.09 48.862-6.855 1.552-1.153 3.917-3.522 4.806-4.838 5.194-7.582 2.653-16.618-7.097-25.177-4.03-3.534-8.498-6.542-15.532-10.415-26.971-14.875-43.93-27.458-57.285-42.509-2.465-2.77-5.206-6.492-6.884-9.337-2.803-4.75-4.58-9.612-5.356-14.663-.326-2.068-.388-6.203-.138-8.397 1.214-10.439 7.147-20.578 17.009-29.037 1.414-1.203 5.219-4.136 5.557-4.261.175-.075.663-.927.663-1.178 0-.338-.438-1.015-.763-1.178-.651-.351-1.126-.238-2.128.463-7.071 4.976-13.279 11.468-17.247 18.06-9.386 15.59-7.96 32.183 4.118 47.71 3.98 5.114 11.452 12.708 17.86 18.147 11.077 9.4 24.719 18.461 42.654 28.349 5.645 3.12 8.611 4.962 11.903 7.419 7.209 5.389 11.289 10.665 12.265 15.853.263 1.441.188 3.597-.2 4.925-2.34 8.234-14.456 14.337-30.851 15.541-2.253.162-8.624.162-10.889 0-8.461-.615-16.108-2.256-24.531-5.264-28.712-10.264-54.181-29.338-81.115-60.782-7.435-8.672-15.32-18.686-25.032-31.77-2.816-3.797-4.093-5.539-14.381-19.613-17.923-24.5-27.259-35.955-37.81-46.37-5.382-5.313-9.212-8.584-14.694-12.557-21.94-15.879-47.961-25.478-74.845-27.596C135.884.82 129.902.67 125.596.833zM85.408 45.286c8.56 1.127 16.308 4.611 21.302 9.6 1.264 1.265 2.578 2.832 2.466 2.957-.038.025-1.44.25-3.117.501-2.691.389-7.296 1.19-7.897 1.379-.175.05-.226 0-.226-.226 0-.526-.738-3.083-1.239-4.31-.813-1.968-1.552-3.096-3.016-4.563-1.139-1.153-1.464-1.403-2.503-1.917-1.702-.852-2.829-1.103-4.819-1.115-.95 0-2.127.075-2.84.2-1.54.25-5.408 1.228-8.199 2.068-1.164.35-2.19.639-2.278.639-.087 0-.525-.3-.988-.677-1.164-.94-2.416-1.717-3.893-2.444l-1.276-.626.475-.126a45.582 45.582 0 0 1 3.667-.814c1.49-.276 3.943-.602 5.632-.752 1.352-.113 7.272.038 8.75.226zm-31.34 3.872c-3.003 1.667-5.506 3.321-7.747 5.1-.526.414-.976.753-1.026.753-.138 0 1.001-1.304 1.977-2.256a17.927 17.927 0 0 1 5.557-3.71c1.002-.413 2.554-.902 2.93-.915.1-.012-.652.452-1.69 1.028zm9.85-.589c2.078.652 4.631 1.892 5.72 2.77l.3.238-1.138.413c-3.242 1.166-5.307 2.557-6.96 4.7-1.013 1.328-1.3 1.792-2.064 3.309-1.765 3.521-2.867 7.381-3.48 12.118-.288 2.294-.3 9.337-.012 12.094.112 1.003.188 1.83.162 1.855-.037.05-5.532.276-6.908.276H48.26l-1.877-3.672c-2.992-5.853-4.18-8.773-4.869-11.994-.288-1.378-.325-1.842-.325-3.885 0-1.917.05-2.531.275-3.572l.275-1.253 1.352-1.353c3.192-3.234 7.096-6.229 11.227-8.61 2.716-1.567 7.472-3.735 8.223-3.747.187-.013.8.138 1.376.313zm23.48 1.68c3.918.5 6.533 3.458 7.785 8.822.15.614.225 1.153.163 1.203-.05.05-1.052.326-2.228.627-3.692.94-8.41 2.544-11.677 3.998-.651.288-1.215.489-1.264.45-.063-.024-.138-.55-.176-1.152-.238-3.622-1.94-7.845-4.368-10.828l-.575-.714 2.014-.577c3.042-.865 5.307-1.416 6.609-1.63 2.065-.337 2.416-.362 3.717-.2zm-14.543 3.91c2.866 3.133 4.555 7.343 4.555 11.366v1.329l-1.188.664c-4.369 2.444-6.76 4.888-7.648 7.87-.3.99-.3 3.07 0 4.174.175.639.739 2.017 1.04 2.519.074.125-1.59 1.153-2.754 1.679-1.853.865-3.93 1.479-6.396 1.892-.676.113-1.264.176-1.302.138-.137-.15-.388-3.496-.475-6.341-.188-6.58.676-11.906 2.728-16.794 1.64-3.897 3.63-6.216 6.458-7.481.927-.414 4.03-1.53 4.293-1.53.113-.012.426.226.689.514zm60.088 3.057c3.93.602 7.522 2.72 9.938 5.853 2.503 3.233 4.08 7.695 4.33 12.206l.075 1.417-1.364-.702c-1.452-.74-3.604-1.466-4.931-1.68a19.336 19.336 0 0 0-2.14-.125h-1.327l.238-.977c.35-1.379.438-3.835.188-5.063-.651-3.133-2.841-6.216-5.808-8.21-1.739-1.165-3.216-1.804-5.544-2.43l-.563-.15.5-.114c1.59-.35 4.256-.363 6.408-.025zm-9.499 2.444c2.628.288 4.843.978 6.683 2.068 1.202.714 3.192 2.62 3.918 3.747 1.589 2.431 1.852 5.251.788 8.397l-.288.865-.813.275c-3.73 1.254-6.771 4.01-8.023 7.257-.626 1.604-.863 2.995-.951 5.476-.038 1.228-.088 2.231-.1 2.231a8.72 8.72 0 0 1-.576-.2c-.3-.1-1.564-.49-2.803-.865a354.3 354.3 0 0 1-4.081-1.228c-1.001-.314-2.027-.602-2.278-.652-.55-.113-.525.113-.275-3.008.513-6.429.576-15.954.125-18.786l-.213-1.353.601-.627c.889-.902 2.241-1.993 3.642-2.92l1.214-.815h1.102c.613 0 1.652.063 2.328.138zm-9.087.79-.588.551-.15-.376c-.088-.213-.163-.426-.163-.476 0-.113.413-.2 1.089-.238l.4-.013-.588.552zm-3.204 1.078c.225.589.413 1.19.426 1.353 0 .175-.451.865-1.152 1.78-1.927 2.468-3.442 5.063-4.743 8.133-.676 1.554-1.202 3.108-3.154 9.224-.376 1.165-.801 2.444-.951 2.832l-.263.702-1.665.088c-4.13.2-4.969.225-4.969.175 0-.037.338-1.441.739-3.12 2.127-8.773 2.74-12.47 2.878-17.408l.075-2.932 1.064-.226c3.054-.614 10.226-1.73 10.939-1.692.338.025.401.113.776 1.09zm-15.47 3.32c0 4.212-.813 9.024-3.103 18.486l-.601 2.444-3.993.037c-6.07.05-8.76-.213-11.264-1.115-1.114-.401-2.353-1.128-3.029-1.78l-.4-.376.838-.952c1.69-1.892 2.641-3.309 3.705-5.527.839-1.754 1.49-3.71 1.827-5.49.45-2.393.238-2.067 1.94-2.869 1.965-.915 5.044-2.118 7.322-2.857 2.178-.715 6.083-1.805 6.483-1.805.276-.013.276 0 .276 1.805zm-56.896 5.515c.288 1.516.863 3.697 1.326 4.938.2.551.35 1.015.326 1.015-.025 0-.25-.351-.514-.765-.926-1.516-3.216-3.559-4.28-3.822-.238-.063-.275-.138-.213-.351.188-.664 1.477-3.133 2.203-4.236l.789-1.228.075 1.667c.05.902.175 2.155.288 2.782zm73.655 1.83c.013 2.318-.05 5.363-.112 6.767-.125 2.557-.476 7.269-.539 7.332-.025.025-.538-.038-1.151-.138-1.665-.276-4.556-.564-5.607-.564h-.914l.864-2.67c.475-1.454 1.201-3.697 1.614-4.975 1.44-4.474 3.004-7.733 5.094-10.653l.576-.814.075.752c.05.413.088 2.644.1 4.963zm-35.657-.94c-.864 3.17-2.491 6.24-4.43 8.384l-.677.752-.263-.577c-.675-1.504-.625-3.246.138-4.875.538-1.14 2.478-3.033 4.18-4.085.676-.427 1.252-.727 1.277-.665.025.05-.075.54-.225 1.066zM31.928 74.21c-.213 1.329-.338 3.259-.263 4.236.075 1.053.363 3.07.513 3.597.063.238.013.288-.413.35-4.017.703-8.423 2.783-11.99 5.666-2.39 1.93-5.244 4.975-6.984 7.469a64.733 64.733 0 0 1-.926 1.316c-.313.438.488-2.807 1.214-4.913 2.603-7.544 7.635-13.598 13.968-16.78 1.514-.753 3.604-1.417 4.606-1.454.35-.013.35 0 .275.513zm3.642.464c1.815 1.178 3.192 3.56 3.805 6.58.15.739.25 1.365.225 1.378-.025.025-.55-.063-1.176-.188a22.933 22.933 0 0 0-2.34-.313c-.965-.063-1.24-.126-1.277-.288-.138-.414-.439-2.495-.514-3.46-.112-1.365.188-4.198.438-4.198.05 0 .426.213.839.489zm106.485 2.57c1.339.4 2.903 1.127 4.18 1.917l.926.576-.087.953c-.113 1.34-.601 3.584-1.139 5.276-1.227 3.772-3.279 7.294-6.521 11.204l-.401.476-1.627-1.178c-2.002-1.429-3.779-2.507-6.132-3.71-1.139-.589-1.753-.965-1.69-1.065 2.365-3.835 4.456-8.146 6.371-13.147.463-1.203.675-1.604.863-1.654.138-.025 1.127-.037 2.19-.025 1.678.038 2.091.088 3.067.376zm-8.962 1.353c-1.151 2.945-2.528 6.015-3.529 7.87-.626 1.165-2.203 3.885-2.253 3.885-.113 0 .175-4.65.351-5.44.475-2.293 1.527-4.06 3.204-5.426.663-.526 2.24-1.516 2.453-1.541.025 0-.088.3-.226.652zm-88.224 6.955c0 .038-.187-.1-.413-.288-.225-.2-.776-.602-1.239-.902-.913-.59-.863-.502-1.039-2.219-.087-.752-.463-2.657-.625-3.133-.05-.138.675 1.266 1.614 3.108.939 1.855 1.702 3.397 1.702 3.434zm106.009-2.256c2.278 2.682 4.406 6.354 5.32 9.186 1.264 3.948 1.151 6.68-.388 9.625-.764 1.454-1.477 2.356-3.092 3.948l-1.364 1.354-.526-.076c-.275-.037-1.151-.225-1.927-.413l-1.414-.339-.964-1.265c-1.302-1.73-3.229-3.873-4.481-5.013l-1.039-.94 1.139-1.404c2.278-2.832 4.481-6.492 5.67-9.437.588-1.454 1.227-3.684 1.514-5.288.126-.702.276-1.279.326-1.279.05 0 .601.602 1.226 1.341zm-78.724 1.742c1.54 1.404 4.293 2.582 7.134 3.046 1.014.162 3.905.388 5.069.388h.876l-1.815.74c-4.568 1.854-8.586 4.148-11.878 6.792-1.501 1.203-3.554 3.233-4.455 4.411-.463.615-.701.828-.939.828-.4.012-2.102-.276-3.63-.627l-1.2-.263-.714-4.349c-.4-2.381-.826-5.038-.951-5.903l-.226-1.566.326-.088c.175-.05 1.139-.225 2.127-.413 3.117-.565 6.146-1.717 8.398-3.171 1.052-.69.914-.702 1.878.175zm-33.505.176 1.089.275v1.818l-1.026.213c-.576.112-1.127.2-1.252.2-.138 0-.438-.451-.901-1.366-.388-.752-.701-1.416-.701-1.466 0-.15 1.627.037 2.79.326zm-5.307.463c.163.401.538 1.191.826 1.755l.538 1.028-1.764.589c-6.196 2.055-11.565 5.276-15.733 9.449-2.09 2.093-3.93 4.449-5.281 6.755-.276.476-.489.739-.526.627-.025-.101-.088-.677-.125-1.291l-.063-1.103.851-1.654c2.49-4.825 5.908-9.074 9.65-12.006 2.616-2.043 5.882-3.672 8.874-4.412 2.428-.614 2.403-.614 2.753.263zm65.946 2.895.651.088-.626 1.053c-1.352 2.268-2.904 4.048-4.994 5.727-.725.577-1.351 1.053-1.414 1.053-.263 0-.012-2.068.663-5.615.313-1.629.439-2.03.601-2.03.113-.012.676-.088 1.264-.175 1.14-.188 2.791-.226 3.855-.1zm-42.14 2.532c.187 1.278.563 3.634.838 5.226.263 1.604.45 2.92.413 2.92-.2-.013-2.053-1.103-2.791-1.654-1.79-1.316-3.542-3.635-5.232-6.906l-.9-1.717.988-.012a161.54 161.54 0 0 0 2.916-.113 73.224 73.224 0 0 1 2.691-.075l.738.012.338 2.319zm50.363-1.993c2.691.263 3.78.414 3.893.527.162.163-1.265 9.85-1.828 12.469l-.15.665-6.083-.088-6.095-.088-.951-.551a24.108 24.108 0 0 0-2.128-1.053c-1.239-.539-1.364-.639-1.364-1.078 0-.2.225-.426.901-.865 3.742-2.418 6.458-5.363 8.548-9.236l.601-1.115 1.077.087c.588.038 2.202.188 3.579.326zm-62.254.877c.664.978 1.24 2.231 1.715 3.748.35 1.128.838 3.496.726 3.596-.225.226-4.543-2.669-5.17-3.446-.112-.138-.162-.802-.162-2.293V89.5l1.102-.113c.6-.075 1.126-.138 1.176-.15.05 0 .325.338.613.752zm45.87-.3c-.337 1.153-.9 5.063-1.025 7.068l-.088 1.466-1.202.527-1.201.539-1.903.037c-3.103.063-6.02.664-8.698 1.792-1.114.464-1.24.489-2.854.564-.926.038-2.365.025-3.191-.025l-1.502-.1 1.502-1.504c4.305-4.324 11.051-8.008 18.586-10.151 1.715-.489 1.664-.476 1.577-.213zm-51.39.814-.012.54-.388-.427c-.363-.4-.375-.438-.15-.526.476-.188.55-.126.55.413zm77.098.05c2.303.49 3.442.915 4.681 1.742.851.565 1.677 1.417 2.04 2.093l.288.527-.35.363c-1.552 1.667-4.343 3.785-6.533 4.95-1.077.577-4.619 2.081-4.706 2.006-.013-.025.137-.94.338-2.043.3-1.63 1.151-7.37 1.439-9.688.062-.463.1-.526.338-.476.15.038 1.264.263 2.465.526zm-80.038 1.016c.275.388 1.101 1.366 1.852 2.18 1.026 1.14 1.34 1.567 1.34 1.83 0 .64.738 3.973 1.163 5.301.238.727.688 1.893 1.001 2.594.313.715.551 1.291.538 1.291-.312 0-3.63.464-5.018.702-9.275 1.592-17.01 4.75-22.554 9.211-.6.477-1.126.827-1.176.777-.163-.163-1.077-2.606-1.427-3.797l-.326-1.128.439-.99c2.503-5.539 6.933-10.527 12.353-13.91 1.702-1.054 3.742-2.131 5.431-2.846 1.59-.664 5.257-1.917 5.633-1.917.162 0 .425.25.75.702zm93.293 3.546c2.753 1.391 7.021 4.123 7.021 4.5 0 .237-4.881 4.524-5.169 4.524-.088 0-1.665-.138-3.517-.314-1.865-.175-3.617-.313-3.917-.313h-.526l.538-.79c1.364-1.942 2.065-3.872 2.165-5.89l.075-1.353.564-.69c.3-.376.613-.676.675-.676.063 0 1.002.45 2.091 1.002zm-79.238 1.341c.626.84 2.44 2.682 3.279 3.321l.438.339-1.139-.351a37.279 37.279 0 0 1-2.015-.69l-.876-.338-.15-1.278c-.075-.702-.175-1.404-.213-1.567-.05-.15-.05-.275-.013-.275.038 0 .35.376.689.84zm-4.243 3.334 1.29.652-.063 1.93c-.05 1.065-.126 1.967-.176 2.017-.05.05-.525.126-1.063.176l-.952.075-.576-1.103a21.23 21.23 0 0 1-1.652-4.286c-.175-.652-.35-1.29-.375-1.416-.05-.15.3.025 1.101.539.639.426 1.753 1.052 2.466 1.416zm73.093 2.281c-1.039 1.027-1.102 1.065-1.665 1.065-.313 0-.576-.038-.576-.1 0-.05.526-.376 1.164-.74.626-.351 1.352-.789 1.59-.965.237-.175.463-.313.5-.313.038-.012-.425.464-1.013 1.053zm21.777 1.391c1.177 1.203 2.14 2.243 2.14 2.318 0 .063-.125.088-.275.05-.351-.075-4.556-.751-5.419-.877-.626-.075-.977-.138-1.84-.288l-.476-.088 1.039-.902a51.858 51.858 0 0 0 1.777-1.654c.413-.426.776-.765.826-.765.05 0 1.052.99 2.228 2.206zm-85.47-.276c1.076.251 2.215.489 2.54.526.325.051.626.138.663.188.075.138.426 2.281.376 2.331-.013.026-.914-.187-1.978-.463a42.255 42.255 0 0 0-6.358-1.065l-.95-.088.1-.827c.05-.464.087-1.153.087-1.529l.012-.69 1.79.577c.976.326 2.654.789 3.717 1.04zm32.991-.99c1.627.263 2.028.464.751.376a52.802 52.802 0 0 0-2.19-.075l-1.202-.013.626-.225c.776-.289.663-.289 2.015-.063zm-25.22 2.268.714.076-.288.664a15.915 15.915 0 0 0-.576 1.579c-.15.514-.287.94-.3.965-.012.025-.225-.063-.463-.176-.438-.2-.45-.225-.588-1.29a165.08 165.08 0 0 1-.226-1.567l-.075-.489.551.076c.3.05.864.112 1.252.162zm6.471.427h.676l-1.139 1.203c-.626.664-1.514 1.754-1.965 2.443l-.838 1.229-.614-.339c-.588-.326-.613-.351-.538-.777.113-.639.614-2.055 1.052-3.058l.388-.864 1.151.087a40.02 40.02 0 0 0 1.827.076zm19.112.325 2.378.076.4.601.401.614-.65.126c-3.918.777-22.279 4.16-22.329 4.11-.138-.138 1.302-2.055 2.34-3.108.589-.589 1.515-1.416 2.066-1.817l1-.739 6.009.025c3.304.025 7.084.075 8.385.112zm7.385.213c.287.226.137.314-.701.401-.626.063-.689.051-.902-.25l-.225-.313h.801c.463 0 .889.075 1.026.162zm17.897.201c.2.088-.05.251-1.314.865-.864.413-1.702.802-1.865.839-.288.088-.288.076-.213-.388.05-.276.151-.702.213-.965l.125-.464 1.402.013c.776 0 1.514.05 1.652.1zm-5.945.601c-.012.314-.425 2.018-.513 2.106-.125.113-2.028.414-3.267.514l-1.176.075-.639-.802-.625-.802 2.077-.414a97.092 97.092 0 0 0 3.017-.639c1.201-.288 1.126-.288 1.126-.038zm16.671-.025c1.264.101 2.553.201 2.879.213.338.026.601.063.601.101-.013.087-2.842 1.967-5.22 3.459-1.314.827-2.165 1.278-2.277 1.24-.276-.112-2.378-.689-2.766-.764-.814-.163-.839-.1 1.276-2.319l2.015-2.118h.601c.325 0 1.627.088 2.891.188zm8.987.865c.325.05.988.138 2.077.263.351.038.764.101.939.126.163.037.551.1.863.138.313.037.701.087.877.112.175.025.538.088.813.126.275.037.901.15 1.377.25.488.088 1.101.201 1.377.238.275.038.613.088.751.126.137.025.5.087.813.15.313.05.588.1.626.113.037.012.288.063.563.113.451.075.563.175.976.827.251.413.463.802.463.865 0 .05-.237.263-.525.463-3.83 2.607-6.308 4.437-8.361 6.129l-.939.777-2.816.087c-1.552.05-2.966.113-3.154.138-.287.038-.388-.062-.801-.727-.938-1.529-3.592-3.835-5.356-4.649l-.501-.238.375-.201c1.139-.626 5.82-3.772 6.997-4.712.863-.689.888-.689 1.564-.627.376.038.826.088 1.002.113zm-89.727.677c.188.263.714.877 1.177 1.366l.826.902-.45 1.73c-.914 3.421-2.053 6.705-5.608 16.079-.713 1.892-1.577 4.236-1.902 5.201-.338.965-.65 1.804-.7 1.867-.126.15-2.867-.652-4.694-1.366-7.347-2.895-13.593-8.108-17.56-14.65l-.526-.853.476-.426c1.627-1.453 4.518-3.383 6.946-4.624 4.468-2.294 9.863-3.985 15.995-5.001 1.653-.275 4.594-.651 5.445-.689.15 0 .375.176.576.464zm7.673-.288c1.94.225 3.68.564 5.494 1.077 2.366.665 2.278.589 2.403 2.056.038.476.1 1.015.138 1.165l.062.301-1.539-.088c-3.63-.2-6.158-.889-8.41-2.318-.902-.564-.902-.577-.689-1.667.175-.84.05-.815 2.54-.526zm63.305 1.316c-1.102 1.065-1.264 1.127-2.266.927-.363-.075-.275-.138 1.39-.99.988-.501 1.815-.915 1.852-.927.038 0-.4.451-.976.99zm-15.858-.627c.263.288.2.301-.463.1-.325-.1-.438-.175-.325-.25.275-.163.55-.113.788.15zm-4.142 1.241c1.489.977 3.554 1.729 5.344 1.967l.638.088-1.101.426c-5.144 1.993-9.25 5.076-14.093 10.602l-1.627 1.843-1.702-.063c-1.89-.088-2.816-.226-2.879-.426-.1-.288-1.902-3.045-2.741-4.173a44.694 44.694 0 0 0-4.468-5.088c-.726-.702-1.327-1.329-1.327-1.366-.012-.063 22.078-4.312 22.93-4.412.05-.012.512.263 1.026.602zm-86.235.501c.05.363 0 .689-.187 1.165a31.08 31.08 0 0 0-.676 2.169c-.238.827-.426 1.416-.426 1.303-.025-.677.964-5.276 1.114-5.188.05.037.125.275.175.551zm143.832.714c.651.176 1.277.339 1.402.364.113.012.551.138.964.263.413.125.813.238.889.251.162.025 3.729 1.14 4.18 1.303 7.209 2.594 11.902 6.028 13.967 10.214.914 1.842 1.177 3.07 1.127 5.201-.05 1.717-.25 2.619-.951 4.323-.589 1.454-.651 1.492-1.002.539-1.239-3.471-4.405-7.068-8.323-9.437-2.277-1.378-5.482-2.619-8.072-3.12-1.365-.276-1.59-.301-2.691-.401l-1.252-.113c-.213-.012-.288-.2-.463-1.078-.388-1.829-1.064-3.872-2.065-6.241-.526-1.228-.538-1.303-.325-1.454.125-.087.45-.338.726-.551.275-.213.55-.389.613-.389.05 0 .638.151 1.276.326zm-100.664 2.92c1.664.589 3.291.878 5.807 1.041l2.265.15.088 1.955c.113 2.369 0 8.096-.188 9.901-.113 1.065-.213 1.441-.526 2.005-1.451 2.619-3.366 4.486-5.844 5.702-1.878.915-4.419 1.466-6.709 1.454-1.464 0-4.856-.188-6.158-.339l-.65-.062.6-1.717c.338-.94 1.014-2.795 1.515-4.098 3.654-9.675 4.906-13.235 5.82-16.493l.337-1.203 1.264.664c.701.351 1.778.827 2.379 1.04zm59.037-1.077c-.251.225-1.64 1.378-1.903 1.566-.187.15-.187.113-.087-.313.313-1.354.338-1.379 1.552-1.404.525-.012.588.013.438.151zm5.382.275c.175.038.475.101.675.138.701.125.789.251.313.489-.238.125-1.189.702-2.115 1.291-2.954 1.867-5.419 3.847-6.696 5.389-.338.426-.651.739-.701.701-.162-.087-.375-1.729-.275-2.08.075-.225.576-.689 1.665-1.491 1.489-1.103 3.779-2.983 5.006-4.111.538-.489.601-.514 1.189-.451.35.038.763.088.939.125zm-9.888.151c0 .112-.238 1.015-.325 1.29-.05.126-.188-.062-.376-.488-.363-.802-.35-.727-.075-.802.363-.101.776-.088.776 0zm41.553.94c.625 1.416 1.101 2.757 1.451 4.148.176.702.338 1.353.376 1.454.037.125-.025.15-.288.075-.2-.05-.451-.113-.576-.138-.125-.025-.325-.063-.438-.1a7.818 7.818 0 0 0-.713-.151c-.275-.037-.538-.1-.576-.125-.05-.025-.3-.075-.563-.113-.275-.05-.576-.1-.676-.125a8.416 8.416 0 0 0-.813-.126c-.338-.037-.764-.1-.939-.125a9.022 9.022 0 0 0-.689-.113c-.413-.075-2.891-.325-3.103-.325-.176 0 .963-.89 3.416-2.632 2.491-1.767 3.542-2.494 3.642-2.494.051-.013.263.401.489.89zm-44.807.501c.15.363.35.827.438 1.04.1.201.3.739.451 1.178.337.94.45.777-1.352 1.842-3.042 1.805-7.71 3.835-10.363 4.512-.2.05-.426.1-.5.125-.74.213-2.767.69-3.255.752l-.626.088 1.014-1.115c3.166-3.472 6.007-5.678 9.5-7.394 1.589-.777 3.804-1.655 4.205-1.667.137-.013.313.225.488.639zm-34.531.464c1.527 1.278 3.805 3.621 5.069 5.213 1.301 1.654 2.478 3.321 2.378 3.409-.038.037-.676-.075-1.415-.263-3.88-.978-6.683-2.745-8.21-5.176-.188-.301-.338-.614-.338-.727 0-.263 1.151-3.446 1.252-3.446.05 0 .613.438 1.264.99zm53.805-.088c1.39.664 2.904 1.717 3.88 2.719l.939.953-.626.088c-.338.05-.939.125-1.314.162-.376.051-.826.101-1.001.126-.176.025-.614.088-.989.125-.376.05-.789.113-.939.138-.15.025-.513.088-.826.125a9.138 9.138 0 0 0-1.001.176 9.151 9.151 0 0 1-1.001.175c-.664.088-1.002.151-2.253.389-.513.1-1.139.2-1.377.238-.238.037-.576.1-.751.138-.175.037-.475.087-.688.125-.201.025-1.014.188-1.778.351-.775.175-1.414.263-1.414.213 0-.201 1.677-1.629 3.142-2.682.826-.589 2.478-1.642 3.654-2.344 1.189-.701 2.328-1.378 2.529-1.516.438-.276.688-.226 1.814.301zm-115.058.501c-.037.1-.075.063-.075-.075-.012-.138.025-.213.063-.163.037.038.05.15.012.238zm3.417 1.128.526 1.228-.951 1.128c-.852 1.015-.952 1.103-.952.79.013-1.04.626-4.612.764-4.462.037.063.325.652.613 1.316zm52.204 2.005-.25.79-.013-1.065c0-.589-.038-1.379-.063-1.755l-.075-.689.325.965.326.977-.25.777zm-49.7 2.645c2.828 4.561 7.621 9.186 12.665 12.194 1.364.814 1.665.814-2.778.025-5.97-1.041-8.173-1.73-10.213-3.184-.864-.614-1.665-1.466-2.153-2.306-.425-.726-1.001-2.331-1.089-3.095-.075-.577-.05-.652.563-1.542.726-1.04 2.278-3.007 2.378-3.007.038.012.313.413.626.915zm126.91-.351c1.389.087 3.141.288 3.229.376.037.037-.025.062-.138.062-.313 0-3.166.94-4.218 1.379-2.428 1.04-4.706 2.306-6.633 3.697-1.464 1.053-1.489 1.065-1.001.451.876-1.128 2.753-3.133 4.33-4.624l1.615-1.554.813.075c.451.05 1.352.113 2.003.138zm-36.296.927c-.213.702-.338.902-.538.94-.639.125-2.453.439-2.967.514-.312.05-.726.113-.938.138-.2.037.5-.389 1.564-.928 1.064-.551 2.19-1.14 2.503-1.316.301-.175.576-.3.601-.288.025.025-.087.451-.225.94zm28.423.188c-.65.664-1.201 1.178-1.214 1.166-.012-.013-.062-.464-.1-1.003-.037-.539-.1-1.028-.138-1.09-.1-.163.088-.188 1.415-.226l1.214-.038-1.177 1.191zm-66.233-.138c1.176 1.116 2.352 1.905 4.042 2.72 1.953.927 4.844 1.729 7.11 1.967.312.038.625.113.712.188.176.138 1.415 2.62 1.415 2.82 0 .251-.313.389-1.127.476-.45.05-.9.101-1 .126-.101.012-.727.1-1.378.188-.65.075-1.777.288-2.49.463-.714.163-1.415.326-1.565.364-.513.1-2.666.827-3.892 1.328-2.24.903-3.492 1.554-5.732 2.945-1.264.79-1.527.802-1.277.075.2-.601.889-3.847 1.151-5.426.126-.79.376-1.617.726-2.444.514-1.203 1.778-4.95 2.078-6.141.075-.313.175-.564.213-.564.025 0 .488.414 1.014.915zm62.328-.138c.138 1.028.05 3.56-.175 4.725-.025.175-.475.94-1.001 1.717-1.552 2.356-2.904 4.938-3.592 6.93a11.835 11.835 0 0 1-.964 2.068c-.876 1.454-2.002 3.697-2.628 5.214-.301.727-.588 1.428-.651 1.566-.063.138-.3.84-.538 1.567-.338 1.04-.476 1.316-.664 1.316-.125 0-.613-.414-1.088-.94a30.414 30.414 0 0 0-8.161-6.266l-.763-.389-.15-.84c-.351-1.829-.501-2.757-.576-3.509-.05-.438-.1-.915-.138-1.065-.163-.764-.15-2.882.013-3.434.1-.338.212-.94.263-1.353.037-.414.1-.79.125-.84.025-.038.087-.551.125-1.128.062-.752.175-1.266.45-1.855l.363-.827 1.465-.288c.801-.15 2.14-.426 2.966-.589.826-.176 1.815-.364 2.19-.414a144.84 144.84 0 0 0 2.065-.363c.764-.138 1.577-.288 1.815-.326.238-.05.576-.113.751-.138.175-.037.538-.1.814-.125.275-.038.788-.113 1.126-.188.351-.063.939-.15 1.314-.201.376-.037.801-.087.939-.112.138-.025.538-.076.876-.126.35-.037.713-.1.814-.125.1-.025.663-.088 1.251-.138.588-.037 1.089-.1 1.114-.125.1-.1.175.075.25.601zm21.878 1.479c.175.965.088 4.487-.15 6.329-.638 4.975-2.791 10.327-6.095 15.202-.927 1.341-.977 1.378-2.04 1.454-.539.037-.789-.038-1.815-.564-1.677-.84-5.182-2.169-6.446-2.432-.138-.025-.576-.138-.964-.238-.675-.188-1.151-.288-3.479-.777-1.489-.313-1.427-.125-.851-2.331.488-1.905 1.264-5.527 1.414-6.617.038-.313.113-.739.15-.94.05-.213.076-.413.063-.464-.038-.137 2.128-2.03 3.492-3.045a30.329 30.329 0 0 1 11.314-5.264c1.815-.426 1.752-.413 2.754-.501.488-.05.888-.1.913-.125.025-.013.413-.025.864-.013.776.013.826.025.876.326zm3.454.702c5.132 2.143 8.699 5.063 10.639 8.697 1.427 2.657 1.639 5.076.776 8.573-.063.275-.3.576-.463.576-.063 0-.351.1-.639.238-1.176.527-4.092 1.416-5.97 1.83-.65.138-2.766.564-3.129.627-.237.037-.663.125-.938.188-.276.05-.776.137-1.127.175-.338.05-.763.1-.938.138-.176.037-.513.088-.751.125-.238.038-.576.088-.751.125-.175.026-.563.088-.876.113-.313.038-1.102.151-1.753.251-.65.1-1.214.163-1.226.138-.025-.025.35-.702.838-1.504 1.377-2.243 2.704-4.975 3.467-7.144.614-1.717 1.352-4.411 1.502-5.451.038-.238.113-.727.175-1.065.213-1.153.313-2.62.313-4.788 0-1.19.013-2.168.038-2.168.012 0 .388.151.813.326zm8.924 1.742c3.267 1.78 5.933 4.411 7.422 7.331.676 1.316 1.389 3.234 1.389 3.723 0 .363-1.589 1.942-2.853 2.819l-.526.364.075-.476c.363-2.194-.25-5.577-1.427-7.871-1.013-1.992-3.129-4.499-5.031-5.99-.451-.351-.864-.69-.939-.752-.212-.201.826.275 1.89.852zm-60.213.338c-.088.301-.376 1.078-.626 1.73-.251.651-.563 1.466-.689 1.817-.237.627-1.101 2.694-1.639 3.91-.15.364-.326.664-.376.664-.05 0-.638-.275-1.314-.614-2.891-1.441-7.272-2.807-10.125-3.145a24.245 24.245 0 0 1-1.314-.188c-.226-.063-2.666-.238-3.154-.226-.2 0-.35-.025-.35-.05 0-.038.575-.677 1.263-1.429l1.264-1.366H88.1a100.45 100.45 0 0 0 2.453-.05c.238-.025.976-.075 1.627-.125a81.547 81.547 0 0 0 2.754-.263c.663-.076 1.276-.138 2.315-.251a23.688 23.688 0 0 0 1.44-.188 29.843 29.843 0 0 1 1.564-.238c1.352-.201 1.84-.276 2.315-.389.764-.175.751-.175.564.401zm2.403 1.667a18.068 18.068 0 0 0-.201 2.055c-.025.928-.125 1.454-.463 2.507a35.073 35.073 0 0 1-.601 1.704c-.1.201-.212.514-.262.69-.05.175-.263.639-.463 1.04-.388.789-.413.789-1.139.188l-.351-.288.338-.752c.175-.414.426-.978.551-1.254.263-.589.951-2.281 1.439-3.509.188-.488.388-.99.438-1.128.301-.726.751-2.03.764-2.193 0-.1.037-.125.062-.062.025.075-.025.526-.112 1.002zm-22.992-.564c0 .05-.1.176-.225.288-.175.163-.263.176-.376.063-.263-.263-.163-.464.225-.451.213.012.376.05.376.1zm-71.628 4.274c2.44 2.368 5.231 3.421 12.365 4.674 4.13.74 9.838 1.542 12.591 1.78.539.05 1.027.125 1.102.163.087.062.025.476-.2 1.266-.176.651-.326 1.203-.35 1.228-.013.012-.664.15-1.453.288-5.332.978-10.338 2.933-14.506 5.677l-1.063.715-1.04-1.103c-4.092-4.311-7.296-9.813-9.036-15.515-.575-1.918-.575-1.968.1-.94.35.513 1.014 1.316 1.49 1.767zm-3.717 1.228c1.915 5.665 4.806 10.452 9.286 15.34l.789.864-1.214 1.116c-1.464 1.366-3.28 3.484-4.406 5.188-1.577 2.356-2.991 5.627-3.517 8.083-.288 1.354-.325 1.667-.338 3.134-.012 1.554.088 2.418.4 3.408.126.401.201.727.189.727-.1 0-1.027-1.642-1.815-3.221a42.367 42.367 0 0 1-2.553-6.429c-.338-1.14-.889-3.584-1.014-4.511-.038-.314-.138-.903-.2-1.316-.213-1.241-.288-7.219-.126-9.036a48.696 48.696 0 0 1 1.965-9.7c.438-1.416 1.928-5.301 1.99-5.239.025.025.276.74.564 1.592zm74.444.852c.6 1.705 1.064 3.434.951 3.547-.063.05-.613.238-1.239.438-3.066.928-6.496 2.82-8.473 4.675-.488.451-.651.539-.939.476-.188-.037-.663-.1-1.039-.138-.375-.05-1.026-.125-1.44-.188a41.987 41.987 0 0 0-1.376-.188c-.939-.1-2.666-.325-4.38-.576-1.427-.201-1.552-.213-2.253-.301-1.202-.138-1.477-.175-1.527-.238-.05-.05.85-.827 2.027-1.742.701-.539.814-.576 1.69-.652 2.253-.163 2.954-.238 3.755-.376.1-.012.5-.075.876-.125 1.139-.138 4.08-.902 5.37-1.391 2.39-.89 4.63-2.143 6.407-3.597.614-.489.901-.677 1.127-.702.05-.012.25.477.463 1.078zm4.969-.789c1.376.162 3.704.589 4.63.852.276.075.526.15.564.163.037.012.313.087.626.175 1.414.389 4.543 1.642 4.818 1.918.088.087-.2.1-.876.037-2.628-.263-7.334-.088-9.762.364-.138.025-.501.075-.826.125l-.564.088-.35-1.228a46.62 46.62 0 0 0-.588-1.918c-.126-.376-.238-.702-.238-.727 0-.05 1.74.05 2.566.151zm-11.828.752c-.838.438-3.867 1.516-4.63 1.641-.239.038-.74.151-1.102.251-.701.175-.789.063-.125-.188.225-.075.525-.201.663-.251 1.327-.551 3.38-1.203 4.881-1.541.488-.113.626-.075.313.088zm-15.657 1.228c-.063.225-.15.576-.188.777-.125.727-.2.764-1.289.802-.563.012-1.014 0-1.014-.038 0-.025.163-.138.35-.238.2-.1.777-.526 1.29-.94.513-.426.938-.764.951-.764.012 0-.038.188-.1.401zm68.174 1.817c-.113.401-.226.94-.263 1.19-.088.527-.526 2.106-.613 2.194-.126.137-.226-.915-.176-1.73.063-.777.125-.965.614-1.679.3-.439.563-.777.588-.752.025.012-.05.363-.15.777zm-21.39.827a.738.738 0 0 0 .05.414c.075.225.05.25-.213.2-.338-.063-.363-.138-.162-.576.137-.301.425-.326.325-.038zm-10.1 1.04c.9.075 1.802.201 1.84.226.062.05-2.278 3.885-2.954 4.837a59.975 59.975 0 0 0-.926 1.341c-.3.439-.326.451-2.216.226-.237-.025-.776-.088-1.189-.125-.413-.051-.913-.101-1.126-.126a30.7 30.7 0 0 0-1.252-.125c-.475-.05-.938-.151-1.013-.226-.088-.087-.238-.739-.35-1.466-.126-.727-.326-1.892-.477-2.607-.137-.714-.225-1.316-.187-1.353.05-.063.813-.201 2.34-.426.45-.063 1.49-.163 2.316-.201.826-.05 1.527-.113 1.564-.138.063-.062 2.366.05 3.63.163zm-50.314.364c2.028.025 5.645.05 8.035.05l4.356.012-.15.339c-.075.2-.4.614-.714.94-.5.539-.6.589-1.001.539-.25-.038-.789-.088-1.202-.126-.413-.037-.913-.1-1.126-.125-.2-.025-.964-.075-1.69-.125-.726-.038-1.627-.101-2.002-.126-2.053-.15-9.112-.05-10.376.126-.3.05-.4.025-.363-.088.038-.088.163-.527.276-.978l.225-.827 1.014.176c.625.1 2.478.188 4.718.213zm55.683.488c.163.038.325.088.351.126.187.188-4.256 6.216-4.569 6.216a.591.591 0 0 1-.25-.113c-.125-.075.063-.451.763-1.529.914-1.391 2.579-4.223 2.754-4.662.075-.213.112-.213.951-.038zm-17.71.765c.038.213.125.652.2 1.002.176.878.376 2.031.463 2.67.063.526.063.539-.287.476-.2-.037-.726-.088-1.177-.138-.45-.037-.951-.1-1.126-.125a13.836 13.836 0 0 0-.814-.125 121.04 121.04 0 0 1-3.191-.401 13.52 13.52 0 0 0-1.214-.151c-.163 0-.288-.075-.288-.138 0-.275 3.191-2.093 4.505-2.556 1.653-.602 2.741-.94 2.841-.89.013 0 .05.175.088.376zm22.091.639c1.026.401 1.126.476 1.214.84.1.514 1.414 4.461 1.577 4.762.125.251-.126.251-3.154.025-.376-.038-1.077-.088-1.565-.125-.475-.038-1.264-.101-1.752-.138-.476-.05-1.039-.1-1.252-.113-.2-.012-.4-.037-.425-.05-.025 0 .15-.251.388-.551.651-.79 2.215-3.021 2.903-4.136.326-.526.676-.965.776-.965.101 0 .676.2 1.29.451zm67.047 1.667c-.088 2.018-.15 2.707-.325 3.459a16.78 16.78 0 0 0-.188.94c-.1.639-.789 3.058-1.164 4.073-.413 1.153-1.477 3.383-2.215 4.637-2.954 5-7.122 8.96-12.016 11.417-1.389.702-3.429 1.516-4.343 1.729l-.35.075.087-.902c.163-1.767.063-6.041-.15-6.642a7.726 7.726 0 0 1-.112-.602 14.154 14.154 0 0 0-.213-1.165c-.075-.389-.125-.74-.1-.765.025-.025.676-.401 1.427-.839 6.883-3.986 11.915-8.598 14.168-12.996.575-1.116.638-1.178 1.414-1.617 1.089-.589 2.678-1.679 3.379-2.281.313-.263.613-.464.676-.426.063.038.075.89.025 1.905zm-47.648.288.513.577-.488 1.24a54.479 54.479 0 0 1-.826 1.955l-.338.727-.989-.037c-.688-.013-.988-.076-.988-.188 0-.138.375-1.279.626-1.855.05-.138.275-.677.475-1.191.413-1.015.901-2.08 1.089-2.381.088-.138.138-.1.263.188.087.213.375.639.663.965zm-73.83.15c.375.038 1.163.101 1.751.151.589.05 1.127.1 1.19.113.075.012.2.037.287.037.088.013-.037.314-.338.74-1.089 1.604-2.328 4.361-2.69 5.94-.238 1.078-4.82 4.988-7.297 6.241-2.591 1.303-4.531.877-5.657-1.241-.639-1.203-.902-2.506-.902-4.511.013-1.755.213-3.309.852-6.354.212-1.053.062-.978 2.29-1.153 1.314-.1 9.212-.075 10.513.037zm60.263 1.053c1.114.765 2.678 2.043 3.254 2.645l.363.401-1.176-.063a95.928 95.928 0 0 0-1.865-.088c-.664-.037-.664-.037-.926-.601a31.164 31.164 0 0 1-.714-1.918c-.538-1.554-.601-1.529 1.064-.376zm-75.658-.363c0 .062-.113.777-.25 1.604-.15.815-.288 1.679-.313 1.917l-.138.878c-.113.739-.138 3.321-.025 4.223.138 1.153.213 1.679.288 1.792.025.038.087.263.125.489.037.226.125.501.188.614.062.113.25.514.425.865.35.739.288.789-.5.463-.276-.112-.489-.188-.489-.175 0 .125-3.229-1.015-4.63-1.629-2.992-1.329-5.27-2.632-7.473-4.299-.813-.601-1.476-1.128-1.476-1.165 0-.226 4.38-2.645 5.757-3.184.375-.137.863-.338 1.064-.426 1.414-.626 5.081-1.666 6.696-1.905.225-.025.45-.087.488-.112.1-.101.263-.063.263.05zm25.157.326c.413.05 1.464.2 1.877.263.576.075 1.39.188 1.94.238.35.037 1.039.125 1.552.2.513.076 1.089.163 1.289.176.2.025.814.113 1.39.2.563.076 1.113.138 1.226.138.162 0 .087.226-.338 1.078-.914 1.792-1.202 2.933-1.252 4.913-.062 2.857.513 4.724 2.24 7.243.339.502.589.94.551.978-.1.1-2.615.639-4.718 1.003-1.465.263-2.04.3-3.004.238a136.913 136.913 0 0 1-5.069-.389c-.413-.037-.951-.088-1.189-.113-1.039-.087-2.215-.2-2.44-.238-.288-.037-.701-.814-1.052-1.955-.513-1.667-.638-3.045-.475-5.063.112-1.278.15-1.353 1.026-2.456.939-1.166 2.29-3.234 3.141-4.763 1.164-2.13.94-1.917 1.978-1.829.488.037 1.089.1 1.327.138zm68.148.877c.839.188 1.277.288 1.69.376 1.527.326 4.768 1.228 5.444 1.516.401.176.426.163-.563.238-.863.063-4.355.188-6.608.251l-2.291.063.088-.289c.038-.15.188-.501.3-.777.126-.275.326-.764.451-1.09.163-.413.3-.576.425-.539.101.025.589.138 1.064.251zm34.732.639c0 .175-1.377 1.817-2.441 2.92a36.738 36.738 0 0 1-4.005 3.534c-1.614 1.228-6.308 4.249-6.596 4.249-.062 0-.313-.439-.563-.978-.951-2.03-2.854-4.7-4.155-5.815-.588-.501-.626-.652-.175-.677.2-.012.575-.05.851-.087.275-.038.813-.101 1.189-.151.375-.037.901-.1 1.151-.138.263-.037.626-.075.814-.1.525-.075 1.564-.225 1.852-.276.138-.025.501-.075.814-.112.312-.05.851-.126 1.189-.188.35-.063.826-.151 1.063-.188a67.213 67.213 0 0 0 3.943-.765c.763-.163 1.489-.326 1.627-.351.613-.138 2.653-.689 2.941-.802.376-.163.501-.175.501-.075zm-88.675.363c.213.038.663.088 1.001.126 1.377.15 1.765.2 2.19.275.238.038.576.088.751.101.176.012.601.062.94.113.35.037.9.112 1.238.15.338.038.714.088.839.113.125.025.613.087 1.076.125 1.54.163 1.49.125 1.527.902.025.326.05.802.075 1.041.05.576.163 2.418.25 3.772l.063 1.09-.475.313c-.689.464-1.903 1.216-1.953 1.216-.025 0-.45.226-.939.501-.876.502-3.191 1.554-4.267 1.943-1.653.589-2.754.94-2.967.94-.6 0-2.503-2.895-2.991-4.499-.376-1.279-.476-2.77-.25-4.011.187-1.128.926-2.782 1.677-3.81l.438-.614.7.088c.389.038.877.1 1.077.125zm13.455 1.642c.45.038.988.1 1.189.113 1.026.1 1.614.201 1.677.251.087.087-3.667 3.822-3.843 3.822-.062 0-.137-.401-.137-.915-.025-.902-.063-1.378-.188-2.757-.075-.689-.063-.714.213-.664.15.037.638.1 1.089.15zm5.995 1.141c-1.152 1.265-2.629 2.819-4.706 4.95l-2.29 2.356.012-.476c0-.439.075-.514 1.126-1.341 1.302-1.015 3.805-3.459 5.057-4.938.463-.551.938-1.015 1.051-1.015.125 0 .05.15-.25.464zm5.269-.025c1.965.15 2.34.188 3.129.25 1.064.088 1.915.163 3.442.263 1.902.126 1.902.126 2.54.151.601.025.614.025.902.677.801 1.754 2.64 4.875 3.929 6.654.489.677.964 1.354 1.064 1.479.163.226.151.276-.125.464-.939.676-2.979 1.88-4.205 2.469-2.328 1.14-5.92 2.456-6.709 2.481-.613 0-2.966-.226-4.968-.501a20.88 20.88 0 0 0-.94-.101c-1.426-.125-2.315-.2-2.753-.25-1.251-.138-3.429-.238-6.233-.288l-1.589-.025.075-1.279.075-1.278 3.592-3.697c3.78-3.91 4.906-5.101 6.32-6.692.752-.84.914-.965 1.19-.915.175.037.75.1 1.264.138zm40.551 1.804c-3.604 3.898-8.436 7.557-13.667 10.327l-1.339.714-.138-.714c-.401-1.88-1.001-3.785-1.902-5.965l-.351-.853.613-.902c.326-.501.902-1.429 1.265-2.068l.65-1.153 2.153-.012c1.177 0 2.428-.025 2.766-.051.351-.025 1.777-.087 3.192-.125 1.414-.05 2.791-.113 3.066-.125a71.514 71.514 0 0 1 1.94-.113c.788-.05 1.439-.1 1.452-.113.012-.012.35-.037.738-.05l.701-.037-1.139 1.24zm-25.657-.814c1.001.037 2.015.075 2.253.075.362 0 .5.088.788.501.313.451.35.564.275 1.166-.05.351-.1.676-.125.714-.025.038-.137.627-.25 1.316-.263 1.591-.288 1.754-.376 2.506-.037.339-.112.665-.162.715-.188.188-2.503-3.184-3.768-5.489-.776-1.417-.888-1.717-.6-1.617.075.025.963.075 1.965.113zm7.76.275c0 .126-.639 1.153-.789 1.291-.113.088-.238-.012-.451-.426-.4-.764-.3-.94.551-.94.376 0 .689.038.689.075zm24.042 4.123c.626.94 1.202 2.018 1.602 2.958l.238.589-1.827.877c-1.84.865-2.929 1.341-4.593 1.968-.476.188-.989.389-1.127.451-1.101.501-7.309 2.269-9.387 2.67-.938.175-1.176.213-1.877.325-.413.076-.889.151-1.064.188-.313.051-.726.113-1.94.264-.338.05-.663.1-.713.137-.063.025-.1-.025-.1-.125 0-.113.563-.464 1.351-.852 5.77-2.883 11.565-7.206 15.357-11.492l1.127-1.266 1.189 1.216c.651.664 1.452 1.604 1.764 2.092zm-124.382-.964c2.503 1.767 6.033 3.621 8.724 4.599 2.44.877 3.053 1.078 4.255 1.429 2.578.726 5.983 1.529 7.26 1.704.312.038.65.1.75.125.225.063.626.138 1.815.314.488.075.989.15 1.126.175.138.025.538.088.876.125.94.126 2.454.326 2.892.389.212.025.688.088 1.063.125.376.038.789.1.927.126.137.025.388.05.563.062.313.013.313.013.037.126-.15.062-.575.15-.938.2-.363.038-.776.1-.914.113-1.527.25-4.08.689-4.318.752-.1.025-.388.075-.626.113-.6.087-4.155.902-5.006 1.14-.376.113-.776.226-.876.251-.939.238-3.192 1.002-4.093 1.391-.213.1-.425.175-.476.175-.287 0-4.342 2.018-5.594 2.782-3.968 2.419-6.045 5.302-6.32 8.773-.038.539-.1.978-.126.978-.175 0-3.379-1.417-4.606-2.043-4.83-2.444-7.359-5.076-8.047-8.359-.113-.539-.113-3.158 0-3.76.838-4.624 3.667-9.474 7.584-12.984l1.164-1.04.939.74a51.89 51.89 0 0 0 1.965 1.479zm28.699 1.992c.012.539.05.89.238 2.281.037.226.175.777.313 1.228.262.852.237 1.091-.1.99-.226-.062-.451-.1-2.341-.338-.613-.075-1.24-.163-1.377-.176-.138-.025-.688-.1-1.239-.175-.538-.075-1.026-.175-1.101-.213-.063-.038.1-.188.363-.326 1.251-.664 3.166-2.068 5.244-3.86v.589zm70.602 1.855c.575 1.604 1.013 3.146 1.464 5.213.125.602-.225.401-1.752-.99l-1.615-1.478.038-.69c.025-.376.05-.764.062-.877.038-.251 1.365-1.742 1.515-1.704.05.025.188.263.288.526zm-36.459.877-.05.953-1.602 1.754-1.59 1.755-1-.075c-1.94-.126-2.154-.188-3.167-.853-.826-.539-.927-.639-.714-.727.138-.062 1.052-.413 2.028-.802 2.065-.802 3.704-1.566 5.106-2.368.551-.314 1.002-.577 1.014-.577.013 0 0 .426-.025.94zm64.219 2.557c.037.125.087.401.125.589.025.2.113.789.2 1.303.175 1.065.226 4.048.088 5.264-.138 1.215-.25 1.93-.301 1.992-.062.063-.237.101-.988.214-.276.037-.639.087-.814.125-1.902.338-5.895.276-8.598-.138-.225-.038-.626-.1-.876-.138-1.127-.163-2.666-.564-4.481-1.165-1.765-.577-4.531-1.717-4.418-1.83.025-.025.288-.075.601-.113.763-.1 2.465-.426 3.003-.576.238-.063.839-.213 1.315-.326 3.003-.702 6.796-1.893 9.699-3.058 1.59-.627 4.594-1.98 4.944-2.218.326-.213.413-.213.501.075zm-32.316.175c.113.301.088 3.898-.025 4.086-.138.2-2.691.125-5.707-.188a16.975 16.975 0 0 0-1.152-.088c-.413.013-.35-.075.188-.301 1.665-.689 4.618-2.331 6.033-3.346.513-.363.575-.388.663-.163zm3.016 2.958c.188.213.188.238.013.313-.351.126-.438.088-.438-.238 0-.376.137-.401.425-.075zm-52.366.075a83.8 83.8 0 0 1 3.254.276c1.19.113 1.364.125 2.178.15.45 0 .7.063.626.126-.063.062-.676.263-1.365.451-1.89.501-3.992 1.178-4.78 1.516-.213.1-.464.176-.564.188-.088 0-.388.1-.663.226-.476.213-.538.213-1.565-.013a24.587 24.587 0 0 1-2.052-.551c-1.127-.364-3.505-1.454-3.617-1.655-.05-.075.2-.15.638-.213 1.252-.15 2.49-.3 3.029-.388.175-.025.626-.088 1.001-.125.376-.038.713-.101.751-.138.037-.038.576-.025 1.189.025.626.037 1.49.1 1.94.125zm-11.827 1.592c1.314 1.09 3.366 2.243 5.068 2.857.451.163.851.326.901.364.05.037-.462.35-1.126.689-6.546 3.308-12.04 8.284-14.731 13.359-.876 1.655-.901 1.692-1.139 1.667a49.403 49.403 0 0 0-1.364-.1c-.614-.05-1.164-.113-1.202-.138-.05-.025-.35-.075-.688-.113-.338-.05-.839-.1-1.114-.138a51.59 51.59 0 0 1-2.253-.388 176.56 176.56 0 0 0-2.328-.414c-.475-.087-3.78-.915-6.082-1.516a47.705 47.705 0 0 1-2.128-.677c-1.815-.601-1.803-.589-1.74-2.055.05-.978.313-1.943.801-2.883 1.627-3.158 7.147-6.341 14.606-8.446a73.58 73.58 0 0 1 4.881-1.153l.639-.113c.15-.038.463-.088.688-.126.238-.037.726-.125 1.101-.2.589-.113 1.577-.263 3.768-.577.237-.025.776-.112 1.189-.175.413-.063.926-.138 1.126-.163.213-.025.4-.063.438-.075.038 0 .35.225.689.514zm23.091.664c0 .038-1.014 1.441-1.051 1.441-.013 0-1.24.038-2.729.088-1.777.05-2.728.037-2.728-.05 0-.101 2.816-.865 4.005-1.091l1.19-.25c.95-.188 1.313-.238 1.313-.138zm27.16.639c.7.1 1.151.15 1.614.163.563.013.426.138-.25.213-.301.038-.689.088-.851.113-.326.063-2.278.2-3.392.25-.688.026-1.377-.125-1.377-.313 0-.05.351-.163.789-.25.438-.076.876-.201.976-.264.163-.112 1.427-.075 2.491.088zm-23.418.188c.288.088.514.188.514.238 0 .05-.3.1-.664.113-.363.013-.788.038-.938.075-.15.025-.276.013-.276-.025 0-.175.563-.664.701-.614.088.038.376.125.663.213zm40.752.765c-.025.087-.075.614-.113 1.165-.112 1.554-.275 2.507-.7 4.136-.263.99-.827 2.682-.927 2.794-.037.038-.212-.012-.375-.1-.301-.15-.476-.626-.651-1.817-.025-.213-.075-.464-.088-.564a19.551 19.551 0 0 1-.275-1.566c-.037-.276-.1-.677-.125-.878-.038-.213-.088-.551-.125-.752a67.445 67.445 0 0 1-.138-1.403l-.075-1.028.663-.038c2.053-.112 2.979-.1 2.929.051zm-6.145.563c.037.264.1.84.137 1.291.038.452.088.928.113 1.066.025.137.088.526.125.877.075.601.113.827.263 1.629.05.201.113.589.15.84l.063.463-.551-.175c-1.164-.351-3.492-.664-5.169-.714l-1.001-.025-.814-.752c-.813-.765-2.215-1.855-3.229-2.519-.288-.188-.513-.376-.475-.401.025-.025.237-.076.463-.113.237-.025.538-.075.676-.1.15-.026.6-.088 1.001-.138.751-.101.989-.126 1.564-.251.176-.025.513-.088.751-.125a49.879 49.879 0 0 0 1.878-.389c.788-.175 1.552-.351 1.689-.376.138-.037.614-.163 1.064-.301 1.164-.338 1.214-.325 1.302.213zm10.626.853c1.051.514 2.378 1.103 2.966 1.316 1.176.438 3.605 1.24 3.967 1.303.126.038.852.188 1.603.363a33.77 33.77 0 0 0 2.002.401c.35.038.801.101 1.001.126.876.125 3.38.25 5.007.25 1.602-.012 2.39-.062 3.917-.25l.551-.075-.088.388c-.413 1.905-2.04 5.803-3.229 7.707-2.816 4.587-6.083 8.184-10.476 11.555-3.241 2.494-7.81 5.088-11.577 6.605-.475.2-.989.401-1.126.464-.351.137-.814.263-.814.213 0-.025.138-.464.301-.978.262-.827.425-1.504.638-2.619.025-.176.113-.74.188-1.253.075-.527.15-1.053.162-1.166.025-.125.288-.526.601-.877 1.339-1.567 2.19-2.958 2.766-4.549 1.327-3.622.588-7.357-2.015-10.127l-.438-.463.225-.602c.876-2.293 1.114-3.133 1.64-5.915.087-.439.225-1.867.225-2.356 0-.213.025-.401.05-.401.038 0 .914.426 1.953.94zm-35.207.351c3.028.463 4.242.564 7.221.576l1.903.013 1.326.689c1.39.727 3.442 2.03 4.193 2.682.413.351.413.376.163.401a4.088 4.088 0 0 0-.376.037c-.062.013-.438.076-.851.126-.4.05-.851.125-1.001.15-.138.025-.613.113-1.064.188-.45.063-1.014.176-1.251.238-.238.063-.576.138-.751.176-1.277.275-2.266.539-4.569 1.203-1.439.413-2.678.777-2.753.789-.25.076-3.93 1.266-6.496 2.106-1.44.476-2.64.865-2.678.865-.05 0 .062-1.655.163-2.444.025-.213.075-.715.125-1.128.037-.414.1-.978.137-1.253.025-.276.113-.978.188-1.567.063-.589.15-1.241.175-1.441.025-.213.088-.689.138-1.065.037-.376.088-.777.1-.878.063-.476.113-.488 2.328-.702.45-.05.839-.1.864-.125.025-.025.187-.025.375.013.175.025 1.252.188 2.39.351zm-25.22.401c1.803.225 2.466.263 5.97.288l2.716.025-.438.714c-1.59 2.632-3.154 6.379-3.767 8.999-.175.739-.55 2.857-.576 3.158 0 .087-.05.175-.112.175-.05.013-.138.025-.188.038-.188.05-1.114.2-1.602.275-.276.038-.814.113-1.19.176-.375.063-.963.15-1.313.188-.338.038-1.014.125-1.502.188-.964.125-1.565.2-2.879.313-.476.038-.989.1-1.126.126-1.252.238-13.23.338-13.455.112-.163-.163 1.227-2.481 2.34-3.922 1.014-1.316 3.23-3.534 4.669-4.687 1.114-.89 3.655-2.62 4.944-3.372 1.114-.639 3.98-2.067 5.131-2.556.714-.301 1.127-.401 1.44-.364.237.038.663.088.938.126zm16.646.075c.025.163-.012.514-.237 2.243a82.776 82.776 0 0 0-.388 3.384c-.05.376-.1.852-.126 1.065-.112.99-.263 2.682-.288 3.459-.025.414-.062.451-.55.577-.3.075-1.427.363-2.516.651a193.66 193.66 0 0 0-2.253.577c-.15.025-.863.188-1.59.363a51.82 51.82 0 0 1-1.727.364l-.425.075.075-.464c.15-.977.225-1.291.463-2.118.138-.464.313-1.053.363-1.291.175-.664 1.152-3.045 1.802-4.348.564-1.141 2.003-3.597 2.428-4.149.238-.3.25-.313 3.03-.463.863-.05 1.589-.113 1.614-.138.112-.1.3.025.325.213zm26.872 6.968c1.189 1.466 1.689 2.193 2.29 3.333.914 1.705 1.227 2.62 1.677 4.788l.138.626-1.602 1.567c-4.168 4.111-9.061 7.306-15.482 10.126-.613.276-1.514.627-2.003.777-.475.163-.926.326-1 .376-.063.05-.414.188-.777.301-.613.2-1.176.213-2.415.012-.176-.025-.676-.075-1.127-.125a18.083 18.083 0 0 1-1.44-.188c-.337-.063-.875-.15-1.176-.188-.313-.05-.626-.175-.713-.288-.15-.213-.776-2.156-.876-2.745-.025-.188-.088-.426-.113-.526-.087-.238-.413-1.842-.513-2.519-.038-.313-.1-.702-.125-.877-.313-2.118-.426-8.635-.15-8.861.087-.075.675-.288 1.289-.476a69.617 69.617 0 0 0 2.002-.627c3.968-1.29 8.774-2.819 9.012-2.869.075-.013.463-.126.876-.251s.838-.238.939-.263c.1-.025.763-.188 1.451-.364a61.075 61.075 0 0 1 1.878-.463 33.22 33.22 0 0 0 1.114-.239c1.038-.225 4.28-.689 5.444-.789.313-.025.601-.05.638-.063.05-.012.388.351.764.815zm4.418-.514c1.176.175 3.179.827 3.342 1.078.05.088.1.263.1.376 0 .301.012.376.125.664.05.138.138.526.175.865.05.338.113.676.15.727.113.188-1.852 2.982-2.077 2.982-.063 0-.15-.213-.201-.476-.2-1.078-1.326-3.509-2.403-5.151-.388-.589-.738-1.128-.763-1.19-.038-.101.213-.076 1.552.125zm-100.89 1.516c1.627 1.078 4.981 2.707 8.21 3.986l1.19.463.362.903c.663 1.604 2.028 3.634 3.505 5.201.713.752.638.727-1.052-.276-2.816-1.667-6.108-3.998-8.448-5.965-1.327-1.103-4.493-4.186-5.232-5.089l-.525-.626.5.376c.276.2.939.677 1.49 1.027zm109.1 3.61c.726 1.479.926 3.095.551 4.637-.188.802-.663 1.967-.976 2.381-.175.238-.188.2-.188-.439 0-.376-.038-1.052-.088-1.504-.037-.451-.1-1.015-.125-1.253-.025-.238-.075-.614-.1-.814-.037-.214-.1-.627-.15-.94-.1-.69-.175-1.116-.238-1.442-.225-1.14-.225-1.353 0-1.767l.225-.413.301.275c.162.151.513.727.788 1.279zm-40.739 4.236c.013 2.218.125 4.649.238 5.364.025.162.075.576.125.927.138 1.078.2 1.479.388 2.293.088.426.2.928.238 1.128.025.188.175.727.313 1.203.138.477.225.903.188.928-.038.037-.388-.013-.776-.1-.4-.101-.839-.188-.977-.214a19.979 19.979 0 0 1-1.314-.35c-2.09-.589-3.68-1.529-4.78-2.845-1.303-1.579-1.89-2.87-2.416-5.364-.188-.953-.4-3.384-.288-3.384.525 0 6.558-1.403 8.548-1.98.213-.063.4-.088.438-.063.038.038.063 1.141.075 2.457zM29.6 183.342c.726.201 1.74.464 2.253.614.963.251 1.402.351 2.065.464.213.038.55.113.75.175.364.113 1.49.339 2.254.452.213.037.626.112.938.175.814.176 4.756.714 5.67.765.426.025.476.062.426.288-.3 1.316-.489 2.168-.526 2.331-.025.1-.075.501-.125.877-.038.376-.1.877-.138 1.115-.087.69-.075 3.672.013 4.048.05.201.062.351.012.351-.1 0-1.452-.501-2.04-.764-.288-.138-.563-.238-.6-.238-.176 0-2.842-1.617-4.381-2.657-3.717-2.494-6.846-5.389-8.549-7.896-.225-.325-.4-.639-.4-.701 0-.063.238-.038.538.062.288.113 1.114.351 1.84.539zm90.339-.037c0 .125.025.476.075.789.263 1.767.363 3.284.351 5.314-.013 1.855.05 1.742-1.465 2.895-1.301.99-4.618 2.945-5.018 2.945-.038 0 .175-.301.488-.664 2.04-2.419 3.041-4.925 3.141-7.883.025-.677.1-.915.338-1.203.163-.201.664-.827 1.114-1.391.451-.552.851-1.015.901-1.015.05 0 .075.1.075.213zM71.14 185.56c.113 2.331.45 3.936 1.252 5.941 1.114 2.769 3.079 4.938 5.544 6.103.688.326 2.165.89 2.54.953.076.012.777.175 1.565.363.789.175 1.878.426 2.416.539.576.125 1.014.276 1.051.388.088.226.05.264-.463.351-.238.038-.713.126-1.064.188-.338.063-.938.138-1.314.176-.388.037-.776.087-.876.125-.188.063-.713.1-3.504.288-2.579.176-8.549.088-10.451-.15-.213-.025-.801-.075-1.314-.125a40.25 40.25 0 0 1-1.815-.201 28.332 28.332 0 0 0-1.377-.188 35.455 35.455 0 0 1-1.126-.175c-.338-.063-.764-.138-.939-.176a28.514 28.514 0 0 1-.813-.138 74.754 74.754 0 0 1-2.566-.514c-.175-.037-.689-.15-1.14-.238-.45-.087-1.614-.376-2.565-.626a63.117 63.117 0 0 0-1.99-.502c-.676-.15-5.983-1.829-6.108-1.942-.237-.213-.45-2.243-.4-3.885.025-.928.075-1.83.112-2.005.026-.176.088-.539.126-.815.037-.276.1-.677.137-.877.088-.501.576-1.98.676-2.081.038-.037.776-.037 1.64.026 1.777.112 8.06.15 9.124.05.388-.025 1.402-.101 2.265-.138 2.128-.113 2.003-.1 4.631-.376a71.53 71.53 0 0 0 2.002-.238c.789-.101 1.69-.213 2.003-.251.313-.038.701-.1.876-.138.175-.037.563-.1.876-.138.313-.037.589-.087.614-.112.2-.188.35.025.375.538zm43.38 3.635c-.038.2-.263.739-.501 1.228-1.126 2.381-3.354 4.574-6.696 6.605-.826.488-1.101.589-2.253.764-.725.113-1.627.238-2.002.276-2.153.175-2.691.2-2.628.15.037-.037 1.026-.551 2.19-1.14 3.83-1.93 7.885-4.637 10.701-7.144.651-.589 1.214-1.065 1.239-1.065.025-.013 0 .138-.05.326zm5.044 6.705c-.426 1.604-.526 1.93-.964 3.108-.15.376-.263.701-.263.714 0 .075-3.379 1.04-4.23 1.216-.113.012-.376.075-.588.125-1.189.276-1.415.326-1.815.388a9.14 9.14 0 0 0-.626.126c-.3.088-2.666.476-3.692.614-.2.025-.801.113-1.314.188-.939.138-1.452.188-3.004.338-.451.038-.901.101-1.001.126-.601.2.375-.339 2.816-1.554 1.777-.89 3.016-1.429 3.504-1.529 1.152-.226 3.279-.84 4.256-1.229 2.59-1.002 4.443-1.917 5.945-2.895.513-.338 1.001-.626 1.076-.626.088-.013.05.313-.1.89zm-70.815 4.386c.588.201 1.19.388 1.34.426.15.025.438.113.625.188.526.201 3.33.965 4.606 1.253 1.902.426 3.98.865 4.443.94.238.038.55.1.689.138.137.038.363.088.5.113.138.012.588.088 1.001.163a182.2 182.2 0 0 0 4.005.589c.35.037.726.1.839.113.113.025.6.087 1.064.125.463.05.939.1 1.039.125.1.025.588.088 1.063.126.489.037 1.152.1 1.49.137.813.101 1.314.151 2.516.239.55.037 1.314.1 1.69.125.763.063 2.477.175 3.817.251.488.025 1.64.087 2.565.137.927.051 1.915.101 2.19.113 1.415.063 1.44.075.501.313-.475.138-1.039.264-1.251.301-.2.038-.626.126-.939.188-1.201.251-4.856.878-5.444.94-.338.05-.751.1-.902.126-.15.037-.625.1-1.063.137-.438.05-.99.101-1.227.126-.238.025-.864.087-1.377.125-.513.038-1.251.1-1.627.138-1.427.125-7.997.15-9.074.05-2.077-.213-2.378-.263-4.255-.652-1.84-.388-4.393-1.428-5.883-2.418-1.577-1.053-3.316-2.971-4.092-4.5-.313-.626-.338-.726-.138-.639.125.05.701.251 1.29.464zm48.662.539c1.251 0 2.278.012 2.278.037 0 .026-.263.151-.589.289-.337.138-.713.3-.85.363-.802.364-3.593 1.429-4.093 1.567-.313.087-1.29.163-2.153.175l-1.577.025-.376-.601c-.2-.326-.362-.665-.35-.727.025-.1 1.602-.602 1.602-.502 0 .013.563-.15 1.252-.363 1-.313 1.401-.388 1.915-.326.362.038 1.69.063 2.94.063zm-10.413 1.905c.087.125.175.263.175.301 0 .112-.513.125-1.877.025l-1.19-.076 1.127-.225c1.464-.276 1.564-.276 1.765-.025zm29.399.501c-.5.79-1.276 1.73-2.227 2.669-2.278 2.281-4.606 3.635-7.81 4.525-1.277.351-4.181.451-5.457.175-1.903-.413-3.542-1.115-5.282-2.256-.914-.601-2.453-1.854-2.54-2.068-.013-.05.237-.162.563-.25.325-.088.663-.201.725-.251.076-.05 1.477-.125 3.13-.175a199.99 199.99 0 0 0 3.379-.126c.212-.025.888-.087 1.502-.137 1.702-.138 1.839-.151 2.378-.226.275-.05.838-.113 1.251-.15a32.077 32.077 0 0 0 1.502-.188c.413-.063.926-.151 1.127-.176.212-.025.775-.125 1.251-.2.488-.088.989-.176 1.127-.188.325-.051 3.016-.627 4.067-.865.451-.1.951-.238 1.127-.313.175-.063.338-.126.363-.126.025-.012-.063.138-.176.326z"/></svg>